<svg xmlns="http://www.w3.org/2000/svg" viewBox="0 0 48 48" id="passkey-small" aria-hidden="true" role="none" data-supported-dps="48x48" width="48" height="48">
  <path d="M1.17 38.83L20 20l5 7.99V33c0 2.21-1.79 4-4 4h-2c-2.21 0-4 1.79-4 4v2c0 2.21-1.79 4-4 4H4c-2.21 0-4-1.79-4-4v-1.34c0-1.06.42-2.08 1.17-2.83z" fill="#e7a33e"/>
  <path d="M21.61 22.58L.14 44.05c.19.69.55 1.3 1.04 1.79L22.7 24.32l-1.09-1.74z" fill="#f8c77e"/>
  <path d="M33 1c-8.28 0-15 6.72-15 15s6.72 15 15 15 15-6.72 15-15S41.28 1 33 1zm4.95 14.05c-2.21 0-4-1.79-4-4s1.79-4 4-4 4 1.79 4 4-1.79 4-4 4z" fill="#f8c77e"/>
</svg>
