<svg xmlns="http://www.w3.org/2000/svg" viewBox="0 0 48 48" id="image-small" aria-hidden="true" role="none" data-supported-dps="48x48" width="48" height="48">
  <path fill="#fff" d="M3 5h42v32H3z"/>
  <path d="M0 2v44h48V2H0zm45 35H3V5h42v32z" fill="#dde7f1"/>
  <circle cx="36" cy="15" r="4" fill="#f8c77e"/>
  <path d="M45 35L27 17l-6 6-10-10-8 8v16h42v-2z" fill="#788fa5"/>
  <path d="M45 22.55c-2.68-1-5.68-.61-8 1.06-4.45 2.91-4.1 5.65-7.42 7.78-3.64 2.34-5.31 1.45-8.2 3.08-1.1.63-2.04 1.5-2.77 2.53H45V22.55z" fill="#9db3c8"/>
</svg>
