<svg xmlns="http://www.w3.org/2000/svg" viewBox="0 0 14 14" id="linkedin-bug-premium-v2-xxsmall" aria-hidden="true" role="none" data-supported-dps="14x14" width="14" height="14">
  <g>
    <path d="M14 1v12a1 1 0 01-1 1H1a1 1 0 01-1-1V1a1 1 0 011-1h12a1 1 0 011 1zM4 5H2v7h2zm.25-2A1.27 1.27 0 003 1.8 1.27 1.27 0 001.75 3 1.27 1.27 0 003 4.2 1.27 1.27 0 004.25 3zM12 8.29c0-2.2-.73-3.49-2.86-3.49A2.71 2.71 0 006.89 6V5H5v7h2V8.73a1.73 1.73 0 011.54-1.92h.12C9.82 6.8 10 7.94 10 8.73V12h2z" fill="#c37d16"/>
  </g>
</svg>
