<svg xmlns="http://www.w3.org/2000/svg" viewBox="0 0 14 14" id="linkedin-bug-premium-v2-xxsmall-on-dark" aria-hidden="true" role="none" data-supported-dps="14x14" width="14" height="14">
  <g>
    <path d="M14 1v12c0 .55-.45 1-1 1H1c-.55 0-1-.45-1-1V1c0-.55.45-1 1-1h12c.55 0 1 .45 1 1zM4 5H2v7h2V5zm.25-2C4.21 2.33 3.67 1.81 3 1.8c-.67 0-1.21.53-1.25 1.2.04.67.58 1.19 1.25 1.2.67 0 1.21-.53 1.25-1.2zM12 8.29c0-2.2-.73-3.49-2.86-3.49-.9 0-1.75.45-2.25 1.2V5H5v7h2V8.73c-.11-.95.57-1.81 1.52-1.92H8.66C9.82 6.81 10 7.94 10 8.73V12h2V8.29z" fill="#e9a53f"/>
  </g>
</svg>
