<svg fill="none" xmlns="http://www.w3.org/2000/svg" viewBox="-5 -5 140 140" width="140"
    height="140">
    <g clip-path="url(#logo--circle_svg__a)">
        <path
            d="M66 132c36.451 0 66-29.549 66-66 0-36.45-29.549-66-66-66C29.55 0 0 29.55 0 66c0 36.451 29.55 66 66 66Z"
            fill="#fff"></path>
        <path fill-rule="evenodd" clip-rule="evenodd"
            d="M112.612 53.104C97.506 38.74 81.975 31.2 66.103 31.2s-31.402 7.54-46.509 21.904a3.226 3.226 0 0 0-.113 4.564 3.233 3.233 0 0 0 4.568.113C38.41 44.126 52.428 37.656 66.103 37.656c13.664 0 27.67 6.459 42.018 20.09.225.233.409.553.516.887-.038.197-.058.4-.058.609 0 .762-.252 1.173-.456 1.348a3.313 3.313 0 0 0-.129.117c-.352.335-.703.666-1.054.993-13.374-11.12-27.016-16.926-40.917-16.926-14.646 0-29.004 6.446-43.064 18.76a3.118 3.118 0 0 0-.078.064l-.035.03c-1.076.921-2.25 1.927-3.433 3.105-3.235 3.034-3.489 8.089-.637 11.555l.059.09c.277.417.609.715.921.925 15.004 14.162 30.425 21.594 46.183 21.594 15.872 0 31.402-7.54 46.509-21.904a3.227 3.227 0 0 0 .113-4.563 3.233 3.233 0 0 0-4.568-.114C93.631 87.972 79.614 94.441 65.939 94.441c-13.676 0-27.693-6.47-42.055-20.125l-.023-.021c-.875-.948-.716-2.217-.013-2.866l.093-.09c.355-.354.71-.692 1.072-1.022C38.989 81.954 53.258 87.807 67.779 87.3c13.919-.485 27.543-6.794 40.867-18.441a3.21 3.21 0 0 0 1.01-.893c.917-.822 1.833-1.668 2.747-2.54 1.58-1.389 2.328-3.224 2.558-4.964.154-.377.239-.789.239-1.221 0-2.32-1.002-4.555-2.53-6.082a2.052 2.052 0 0 0-.058-.056ZM66.023 51.23c11.726 0 23.7 4.773 35.995 14.784-11.737 9.64-23.215 14.443-34.464 14.835-12.223.425-24.722-4.34-37.567-14.802C42.297 56.014 54.284 51.23 66.023 51.23Z"
            fill="#B5179E"></path>
        <path fill-rule="evenodd" clip-rule="evenodd"
            d="M66 54c-6.627 0-12 5.373-12 12s5.373 12 12 12 12-5.373 12-12-5.373-12-12-12Zm0 18a6 6 0 1 0 0-12 6 6 0 0 0 0 12Z"
            fill="#B5179E"></path>
    </g>
    <defs>
        <clipPath id="logo--circle_svg__a">
            <path fill="#fff" d="M0 0h132v132H0z"></path>
        </clipPath>
    </defs>
</svg>